<svg xmlns="http://www.w3.org/2000/svg" xml:space="preserve" viewBox="0 0 1008 1024" width="512" height="512"><path d="M1009 668a1015 1015 0 0 1-40-20c-7-11-20-17-29-27l-12-8c-2 0-3-1-3-3 16 1 33 3 49-5-20 1-39 2-58-5 2-3 4-2 7-2 12 1 22-2 31-10l21-12 5-4-18-8c-21-9-40-19-55-36-6-7-12-13-17-21 2-1 4 1 5 1 9 6 18 11 29 12 9 0 18-1 25-10a56 56 0 0 1-51-21c-11 6-20 13-29 19l-2-1 10-13c10-13 22-26 29-41 7-14 14-28 18-43l7-29 12-43 4-20c0-3-1-4-4-4l-16 2c4 8 7 15 9 23-4 1-8 0-12-1s-6-1-7 4l-13 42c-2 5-5 8-8 12-7 9-16 15-24 21-9 6-17 14-27 20-6 4-9 12-14 17-1 2 0 5 1 7 4 12 11 22 15 34l11 20c4 8 1 17 1 25 0 12-4 22-6 33 14 5 25-3 38-6l-14-10-9-4c-2-1-4-1-4-4 0-2 3-2 5-3 6-3 14-3 21-3l4 1c-7-12-21-14-31-21 19 1 32 12 43 26-7 3-14 4-22 8 7 4 10 10 16 15-10 7-21 11-32 15 0 3 2 5 4 7 9 9 19 18 32 24 3 1 4 3 5 6 0 2-2 3-4 5-5 3-11 4-17 6 5 3 11 5 16 10-11 12-22 24-38 32 9 13 17 26 29 36-4 4-8 1-12 2l6 9c4 4 6 8 7 13 1 3 0 5-3 5-16 4-32 11-49 14-7 1-8 2-8 11a69 69 0 0 1-11 36h-1l-3-15c-5 13-9 27-20 36-4-4-4-9-6-13s-4-6-8-8c-5-2-8-7-13-9h-7c-11 6-19 16-29 23-23 20-43 42-61 66a90 90 0 0 1-37 27c-18 8-36 13-54 17-13 2-25 2-38 1-12-1-25-1-38-4-22-5-45-10-65-22l-25-16-15-16-56-56c-8-8-14-17-23-24l-8-7c-2-2-4 0-5 2l-15 18-9 10c-12-8-13-22-18-34-4 6-5 12-7 20-4-6-6-10-7-15-2-10-3-20-2-31 0-2-1-3-4-4-12-3-24-5-36-5l-19-1h-3c-1-2 1-3 1-5-3-2-4-4-4-8 1-9 2-18 5-28-3 5-4 7-5 13 0 2 0 4-3 5-2 0-2-2-4-4-5-8-2-16-2-25s4-18 5-28c1-8 2-8-6-11l-20-8c-3-2-7-3-7-8l-4-3-11-4c-1-1-3-1-3-3s1-2 3-3l14-5c10-3 18-10 25-18l7-6c-9-8-18-13-28-17-4-1-9-2-13-5-1 0-3-1-3-3 1-2 2-3 4-3 5-1 10 0 15 3 11 5 23 9 30 20 9-6 14-15 20-25 2 6-8 24-23 39-11 10-24 18-39 24 13 6 26 11 40 12 6 0 8 3 8 9 1 9-2 18-4 26s0 16-1 25l11-12c2 2 1 4 1 6-3 10-5 20-5 31 0 4 2 5 6 5 15-3 30-2 45 1l4 1c11 2 14 7 13 17l-1 33c3-6 4-11 8-16 3 12 8 22 15 31 5-8 9-17 16-25-5-7-15-11-18-20 3-1 4 1 5 2l44 36c22 21 46 39 65 62 14 16 32 28 49 39 13 9 27 12 41 16l27 5 41 1c17 0 33-4 50-6l18-6 11-4c16-7 31-15 42-28l26-34c6-7 14-12 21-19 9-9 20-16 28-26 7-10 17-17 26-25 11-11 18-25 27-38 8-13 11-27 13-41 1-3-1-6 1-9l1-2c2-1 2 0 3 1 4 12 11 23 10 36l-4 14-2 2c-1 0-2-1-1-2 0-8-4-13-7-20-4 29-16 55-37 76 8 8 14 16 19 25 10-10 13-23 14-37 6 4 6 10 9 14 3-5 3-11 3-16v-8c-1-9 1-11 11-14 15-5 31-8 47-9l5-1-18-21c-7-6-14-12-19-20v-3c7 2 13 7 22 10-4-7-10-12-13-18l-6-12c-2-5-1-8 3-11l23-10 11-5c-11-5-21-8-33-11 11-7 24-8 36-13-21-5-32-23-45-38-4 4-2 10-4 15-2 3-2 7-3 11-2 9-10 15-17 21-1 2-2 1-4 0l-1-3 4-7c9-21 17-41 19-64 1-24-1-48-11-71l-14-37c-2-6-2-12-1-18 2-10-1-18-5-25-7-11-13-20-24-27-8-5-17-8-27-9-2 0-4 0-4 3-5 13-15 22-23 33-6 7-11 13-18 18-1 1-2 2-4 1 6-15 6-31 9-47-5 1-10 1-13 5l-26 34c3 2 5 1 8 2 1 1 3 2 3 4s-2 2-3 3l-16 5c-11 4-19 11-22 22l-1 1c-1 2-1 6-4 6-4 0-1-5-3-7l-18 12a241 241 0 0 1-58 29c-2 0-3 1-4-2 0-2-2 1-3-1l10-20 14-23c8-13 11-27 17-41 5-14 8-29 10-43 4-23 0-44-9-65l-4-8c-4-9-12-14-20-18-12-6-24-8-35-12-2-1-3-1-3-3-1-1 1-2 2-3l13-6h5l32 18c4 3 6 7 8 11 8 14 13 29 20 44 3 8 4 15 3 23-1 17-2 35-6 51-1 6-5 11-6 16 0 9-4 17-7 25l-15 33c5-3 10-5 14-9l55-37c12-9 22-21 31-33l26-42c3-5 4-10 4-15 2-12 5-23 5-36 0-2-2-4 1-7 7 33 6 65 6 98 7-6 11-12 15-19 7-10 14-19 16-31l8-37c3-10 4-21 3-31l-3-12c-2-15-12-25-21-36-14-16-31-30-50-39l-15-7-17-1c-12 0-24 2-37 4l-17 1c16-14 35-18 52-24 18-7 37-5 56-4-7-5-14-11-22-15s-16-9-26-10c-16-2-32 0-48 3-10 3-21 6-30 11-10 5-17 15-25 23l-15 17c-2-3-3-4 0-7l13-18c3-5 6-9 12-10l4-4c7-8 16-13 27-16 17-5 35-10 53-10l6-3c2-2 5-6 8-7 11-4 16-13 21-22 10-16 24-27 39-37l6-4 3-2c-6-2-11-2-16-2-15 0-29 1-44-1-7-1-13 3-19 5l-30 9c-8 2-15 5-22 10-9 6-21 9-30 15-10 9-20 18-27 30-6 11-15 19-22 29-4 6-5 12-9 17-3-1-4-4-4-7 2-15 1-30-1-46-2-10-1-20 7-29 6-7 10-16 16-24 3-6 8-11 14-15l20-13c-10-1-23-2-37 5-17 8-31 17-46 27-12 8-16 20-21 31l-8 15c0 2-1 3-3 2-1 0-2-1-1-3 2-8-1-15-1-23 0-11 1-22 3-32l1-6c-5 6-11 11-14 19l-13 35c-4 11-4 23-1 34 1 5 4 10 7 14 9 11 17 23 27 33a438 438 0 0 0 45 41h-34c4-4 2-6 1-9l-14-23c-3-5-7-10-12-14s-9-10-13-15c-10-12-23-22-34-34-21-23-44-44-64-68-12-14-25-27-39-39l-8-8h21l11 12 30 32c15 15 31 28 47 42 3 3 6 7 12 10l2-18c3-12 1-24 13-34 15-13 29-27 45-38 2-2 5-3 6-6h7c-2 12-8 22-12 33-3 7-6 14-6 21h1l4-7c6-11 14-22 27-27l5-2c2-1 4-1 4-5 0-2 2-4 4-2s4 1 7 0c25-10 51-11 78-5 1 0 4 1 3 2-1 3-1 6-4 8l-31 22a72 72 0 0 0-32 43c-2 6-1 13 0 19l28-29c7-6 13-13 22-17 23-10 46-20 71-28 19-5 37-8 57-6l29 2c12-1 24 0 36 2 3 0 6 1 8 3-16 11-35 17-49 29-15 11-30 23-43 37 11-1 20-5 30-7l4-2c6-11 14-20 22-29 8-10 18-14 30-13l21 1c6 0 11 2 16 7l33 35c1 1 2 3 4 3 12 2 24 7 35 13 7 5 14 6 22 4l9-2c4-1 7-4 12-3l26 5c7 1 12 4 15 11 9 14 16 30 24 45v84c-9 15-20 28-29 41-4 7-11 12-14 19-6 13-11 27-13 42l-3 17c-3 11-7 23-8 35-2 18-5 36-16 52-6 8-7 20-16 26-2 2-1 3 0 5l10 12c3 4 6 6 10 6 11 1 20-3 30-8l10-4c1 3-1 6-2 9-3 14-12 24-23 33h-3l-7 1 1 2 1 1c10 10 22 15 35 19 12 4 25 5 37 9v7c-10 8-22 14-34 20 10 3 18 2 27 0-9 19-23 30-42 35 11 16 33 27 49 30v13m-92-534-10-7c-11-8-21-16-33-22l-24-9c-5-3-11-4-17-4l-44-4c-9-1-19-1-28 2-21 8-41 15-63 21-5 1-10 4-15 8l7 1c10 4 20 8 29 15l13 10c10 7 19 15 28 24 1 2 3 3 1 6-2 2-4 1-6 0-19-7-40-9-60-11-3 0-6-1-10 1l3 2c21 10 41 21 59 35 11 8 20 18 29 28 4 5 9 9 10 16 0 11 2 22 1 32-1 3 0 5 3 6l8 3c21 11 35 27 48 46 5 8 9 16 10 25l1 4 2-2c13-22 18-46 17-72l-1-7c-2-11-7-20-14-28-11-16-23-29-40-37-8-4-16-7-25-4-1 0-3 0-4-2l6-2 18-2c17-1 33 2 49 4 20 2 37 8 52 20l23 17c-3-17-12-31-21-44-6-9-14-15-20-22a72 72 0 0 0-48-26c-5-1-10-1-15-4 9-7 20-9 30-12 6-2 13-2 19-1 19 5 38 8 56 16-8-7-14-15-24-20m5 56 15 24c9 17 10 36 18 53v3l-4 1-7-5c-11-11-24-21-38-28-18-8-36-16-55-19l-17-1 18 12c13 9 26 18 30 35l2 2c9 6 15 13 22 20 7 8 16 12 26 11 13-2 26-4 34-15 7-9 14-17 18-28l7-14c8-13 8-28 6-42l-9-38c-3-12-8-23-17-32-3-4-7-8-12-8-12-1-24 0-37 3l9 10 2 1c3-3 4 1 6 2 11 9 18 20 25 31 3 4 6 7 7 13l-15-6-30-15c-7-4-15-7-24-8l-22-1c-5 0-11-1-16 2 23 6 42 19 58 37m-73 191-3-14c-6-1-12 3-18 2-5 0-6 2-4 6 2 6 3 14 3 21 0 11 4 22 0 33l1 10 10-13c8-11 20-18 31-25 13-8 26-14 31-30 3-10 9-19 12-30 1-5 0-7-5-8l-20-2c-6 0-7 0-8 6 0 5 0 11-2 16-3 9-9 17-14 25-2 4-3 9-6 12-2 2-4 3-5 0l-3-9m-47-54c7 7 13 15 15 25 1 5 4 7 8 5l10-1c7 0 7 0 5-7-3-11-9-20-16-30h-3c-4-1-8-2-10-5 0-3 3-2 4-5-8-9-17-15-29-20l-3 17c-1 4 0 6 2 7l17 14m-7 7c-3-6-9-10-15-14-5 14-9 27-15 40 10-2 18-4 27-3v2l-22 5c7 5 13-4 19 0-1 2-3 1-4 2 11 4 20 13 30 21v-14c-2-8-4-17-8-24-2-6-3-13-12-14v-1m-1-255c17-5 33 1 50 5l-3-3c-8-9-18-15-28-21-4-2-10-3-15-2-6 0-12 2-17 5-7 4-15 8-17 18 10-2 20 2 30-2m121 248 15 6c-2-5-6-9-7-14-1-2-3-4-6-4-6-2-12-5-15-11l-16-20-1 29c-1 4 0 6 4 7 8 2 17 3 26 7m-190 35v-3c-3 3-5 6-6 10 5 1 5-3 6-7z"/><path d="m451 1025-27-33c-12-14-26-25-39-37-12-10-25-18-37-27l-11-8c-2-2-4-2-6 0l-31 23-20 14h-2c5-15 6-30 12-45-12 1-63 25-74 35-8-22-5-43 3-65l-12 4c-13 6-28 9-42 7-25-3-50-1-73 8-3 1-6 2-9 1v-2c8-6 9-16 15-24l14-20c-10 6-18 15-26 23 10-34 12-70 28-103-7 4-17 4-22 12-13 20-23 40-29 63-1 6-3 11-8 15l-8 4c-17 2-32 9-46 20v-31c11-2 22-4 31-9 6-3 10-7 13-13 6-14 10-30 15-45v-1l-11 2c-7 2-15 3-23 3-3 0-6 0-7-3s2-4 4-5c11-9 22-17 31-28 14-17 25-36 37-54l2-6c-15-2-28-7-40-17-11-10-22-20-30-32 16 4 32 9 49 11l-19-17c-14-13-28-26-40-41-5-5-7-12-12-17v-7c5-3 10-1 14-1 14-3 26-8 39-12a221 221 0 0 0 48-20l-13-3c-9-4-14-10-18-19-5-10-10-21-13-32-1-2-2-4 0-6s4 0 5 1c8 7 17 11 26 16 6 3 13 4 19 2 17-5 32-13 39-31 2-4 2-7-1-11-10-15-18-32-25-49-3-7-3-15-2-22l1-25c1-22 7-43 13-64 5-18 8-36 11-54 3-15 0-30-2-44l-4-47c0-12-2-24-4-36-4-24-11-48-9-72l3-50h24c0 8-2 16-4 25-2 17-2 35-2 52 0 19 3 38 5 56l3 39 5 50v15c0 22-3 44-7 65-3 17-8 34-10 51-1 12 0 23 1 35 0 11 4 22 4 33-1 6 3 12 5 18 7 19 16 38 25 55 4 7 9 12 14 18 1 2 3 4 3 8-14-11-24-24-34-37-2 0-3 2-4 3-9 9-16 19-28 24l-20 7c-8 2-16-1-23-4l-8-4c4 9 9 13 17 16 11 4 22 3 34 2 3 0 7-1 11 1-4 6-8 12-14 16-20 15-41 27-65 34-9 4-18 9-28 12-2 1-6 1-8 4 21 31 48 55 81 74-15 5-30 6-45 3 8 5 16 10 25 13l28 5c-14 29-30 56-48 83 29-1 54-12 80-21-1 4-6 4-8 8 4-1 5-4 8-4 0 3-2 4-3 5a79 79 0 0 0-26 45c-1 11-4 22-6 32v3c9-4 15-13 28-13-14 19-24 38-35 59l20-7 13-1h51c8-1 17-2 24-6 9-3 18-3 26-6l3 1-1 1c-5 3-6 8-8 12-6 15-8 31-10 47l1 4c24-20 51-34 83-35 0 2-1 2-2 2l-3 2c2 1 2 3 1 5-3 8-6 17-7 26 19-20 42-32 70-37-6 7-13 11-19 16 0 2 1 3 2 3 8 7 16 15 25 20l14 13c11 10 23 21 36 29 7 4 11 10 17 16 9 10 17 21 24 33h-12z"/><path d="m193 1-6 30-5 37c-1 13 2 25 4 37l10 59 3 10c10-5 18-12 29-16l-15-8-4-2c-2-2-3-4 0-5-3-2-6 0-9-3 28-4 55-5 83 6l-5-18c-4-13-10-26-11-40 0-5-3-9-5-12l1-1c7 6 18 9 18 22 1 13 6 24 9 36l8 24v6c-2 2-4 1-6 0a382 382 0 0 0-66-13l14 11c-6 5-14 5-20 10l-18 15c19 8 34 20 50 31 2 2 0 3-1 5l-18 23c-8 8-18 11-29 14l-18 3c-2 1-5 1-7 3l4 4c11 7 22 13 34 16 2 1 4 1 4 3 1 2-1 3-3 4-8 7-17 13-27 18l4 1c14 2 27 3 41 3 7 0 13-5 21-8a90 90 0 0 1-29-52c5-1 10 1 15 3 10 4 21 7 33 7l37 1c22-1 42-7 61-18 16-9 31-19 47-27l11-4c4-2 5-3 3-7-7-11-12-22-21-31l-24-31-28-35-4-4c1 10-1 18-1 27-3 0-5-2-6-4-14-24-37-38-60-52l9 17-1 1c-12-7-22-15-33-23 6-1 10 3 17 5l-8-11-3-5-1-3 4-1 10 4c15 9 30 18 43 30 7 7 14 14 19 22l3 3c2-7-1-21-5-25l-34-36-19-20-23-26c-3-3-6-5-8-10h17l16 22c14 18 32 31 47 48 19 20 37 42 54 65 11 13 20 28 30 42 8 10 15 21 24 30l7 11-18 6c-17 5-33 14-50 22l-34 19c-12 6-25 7-38 10-17 3-35 0-52-3-7-1-13-6-20-7h-5c-1 2 1 4 2 6 5 12 14 20 22 29 3 4 6 7 5 12-15 7-29 17-42 28 3 3 7 4 10 5l25 10c5 2 5 5 3 9l-8 16c-7 14-11 28-15 43-1 6-2 12-5 17-3 7-7 7-11 1a309 309 0 0 1-36-64c-3-7-3-14-3-21a1201 1201 0 0 1 2-30c2-4 1-7-4-7-1 0-3 0-3-2 2-3 5 1 9-1l-15-2v-2c5-1 9-4 13-7 2-2 3-5 3-8 0-16 0-16-15-26l-12-10c-2-1-3-2-2-3 8-6 18-6 27-8 2-1 4-2 4-4v-28l-4-23c0-2-2-2-4-3s-5-1-6-3c0-2 2-4 3-5 6-3 6-9 4-14-5-24-6-49-11-73-4-17-2-34-1-51l4-46h15m13 378c6 12 12 26 23 37 6-19 11-38 18-55-10-6-21-10-32-13-6-1-11-4-10-11l18-11-23-4c-2 0-3 1-2 3 2 18 2 36 8 54m-1-153-1 16c0 4 1 5 5 4 11-4 20-11 27-20 2-3 2-4-1-6l-18-13-11-8-1 27zm804 611c-6 3-9 10-14 14s-10 8-16 10c9 2 19 0 29-1-2 6-7 9-11 11-13 7-27 13-42 15h-15l-9-1c-15 0-29-3-42-10h-1l-1 1c12 11 12 25 9 39-1 7-1 14-5 20-2 4-2 8-2 13-9-17-15-35-26-51 4 29-5 56-12 83-11-2-12-12-16-19l-22-41c-3 5-4 9-5 13-5 25-15 48-29 69-6 9-14 15-20 23h-15l15-17 20-26c9-13 10-27 8-41-1-13-3-25-7-37l-7-17c-2-4-6-7-10-9-2 0-3-1-4-3 3-1 5 1 7 1 8 4 17 8 25 14 14 9 29 18 40 32 6 7 9 15 12 23l4 6 2-5c3-15 7-30 6-45l-3-23v-5c2-1 4 0 5 2 11 8 20 17 26 30l4 5c4-18-3-34-19-43l-16-8c-1-1-3-1-3-4l13 2c10 3 19 8 29 10 13 2 25 8 38 7h29c8 1 13-3 20-5-9 0-17-2-25-4 12-10 26-16 39-26-4-4-8-4-12-6-9-3-18-6-24-15-7-10-12-20-17-31-4-10-7-20-13-28-1-2 0-3 1-4l7-3c14-3 26-9 38-16 13-6 26-14 37-24v17c-9 11-19 19-32 23-2 1-6 2-6 6 0 8 2 14 9 20 9 7 19 14 29 19v17c-10-3-19-9-28-14-6-2-11-6-17-6-5-1-7-3-7-7l-1-12c-1-4 0-9-3-12l-13 2c3 9 5 18 10 26 10 16 22 31 42 36 6 2 11 6 17 6v4zm-763 188-19-13c-28-15-58-25-90-32-14-4-27 0-41 4l-39 14c-7 3-10 10-16 14l-17 13H4c11-10 22-22 36-28l31-13 29-13c-13-4-26-4-39-4-12 0-25 4-37 5-1-3 0-4 2-5 6-3 11-6 18-8 15-5 31-11 47-14 5-2 9-1 14 2 7 5 16 8 24 11 19 7 38 15 56 24l45 21c13 7 26 13 39 22h-23z"/><path d="M609 1025c4-9 4-18 5-27l1-19 13 8 25 12c11 4 22 7 33 8 12 2 23 1 36-4l-3-2c-14-8-21-22-27-36l-8-12c-2-3-3-5-3-10 15 16 31 21 51 14-18-3-30-16-39-31 19 13 41 20 62 30 0 2-3 3-1 5-7 0-12 4-18 6l-14 5c-6 2-12 0-18 0l34 36c-20 9-40 15-62 11l-20-3c-7 0-12-5-17-8l-14-8-1 25h-15zm316 0c2-5 7-8 11-11 26-24 49-50 69-79l4-6v36l-3 3c-11 14-23 27-36 38l-19 19h-26zM718 753c-4 5-8 9-15 6-4-1-7-3-8-6-2 0-2 1-3 3-5 14-14 24-28 29-8 2-12 1-14-7-1-4-3-8-2-14 4 4 4 8 5 11 3 7 4 7 10 4l5-3 15-17c2-1 3-3 3-6-2-2-5-1-8-1-10 1-19-1-29-4-15-4-30-6-44-11-9-3-18-5-28-5l-16 1-39 1c-11 1-22 0-32 3-15 4-29 0-43-2-21-4-37-16-54-27-10-6-14-15-20-24-4-7-7-15-12-22-3-3-3-8-3-11-1-9 1-17 3-25 1-6 7-10 9-17l2-5c-7-2-9-1-9 5 0 8-5 14-8 19-5 8-5 16-7 24-2 13 2 25 8 36 4 7 9 13 18 12 4-1 7 1 9 4 5 11 13 20 23 26-5 1-9-1-14-4-6-3-11-7-12-15-1-4-3-6-8-6-7-1-13-4-17-11-3 10-2 21-1 31 0 4 3 7 5 10 8 11 17 20 26 29 8 8 19 12 28 17a190 190 0 0 0 48 20l1 1-3 1c-27-5-51-15-74-29-9-6-16-14-24-22l-28-28a88 88 0 0 1-19-46l-3-19c-1-5 2-10 3-14 5-19 14-35 29-47 12-9 25-15 40-15l32-1c-2 4-5 5-8 6-13 5-22 15-30 25-9 11-10 24-9 38 2 19 13 32 24 45 10 13 24 18 38 25 15 7 32 10 49 10 11 1 22 1 33-1 11-1 22-1 33-4 5-2 10-2 14-1 7 2 14 1 21 2 3 0 5-2 5-4v-4c4-10-2-13-11-17-15-5-29-13-41-24-10-9-21-17-26-31l-3-15v-3c-5-11 1-19 6-26 7-9 16-18 27-23 8-4 17-7 25-9l18-4c10-2 20 1 29 3 14 4 28 8 41 15 20 10 30 37 20 58a126 126 0 0 1-69 61c-5 2-9 4-9 11l-2 7c-2 4-1 7 4 7 10 1 20 1 29 5l12 4c12 5 24 8 37 8 6 1 13-1 19-2 6 0 11-1 16-3 11-3 19-11 25-20 8-13 15-27 19-42 5-18 0-35-9-50-2-3-6-5-9-7l-12-9 1-1c19 7 36 15 48 32l4 9c5 14 9 29 4 44-2 3-2 7-2 10-2 13-8 25-14 37l-3 3-12 12a148 148 0 0 1-100 51l-15 1-4-1c0-3 3-4 5-4 13-2 25-4 37-9l17-7c15-8 30-15 42-28 6-5 7-14 9-21-1-2-4-1-5-4 1-2 3-2 4-2 8-3 12-10 15-18 5-11 6-23 6-36-19 48-18 49-57 70 5 3 10 5 17 2M568 613c-12-4-24-2-34 6l-16 13c-3 2-3 4-2 7 2 8 4 16 10 23 4 3 8 5 13 3 4-1 10-2 10-7 1-5-3-9-8-11l-7-5c-2-2-2-4 1-6 4-4 9-4 13 0 7 7 10 16 12 25 0 4-1 6-5 7l-15 5c0 2 2 2 3 3 12 7 25 13 39 16 4 1 6 0 8-4 4-13 5-25 6-38 1-2 0-5 3-5s4 3 4 6c-2 12-2 24-5 36-1 5-1 6 4 5l5-2 18-11 13-8-4-1c-7 0-12-6-10-11 2-7 5-15 9-21l4-5c3-3 8-1 11 3s1 5-3 8c-5 3-9 10-10 16-1 3 0 5 3 5 4-1 8-1 12-4 5-6 9-13 11-21 2-7 2-13-6-17l-3-3c-6-3-11-7-18-6-10 1-20 6-29 10-4 2-7 2-11 0-8-5-17-8-26-11m-14-11c6 1 12 2 18 5l21 9c2 1 4 2 6 1l35-8c10-2 18-2 23 7l5 6c1-13-1-25-17-33-17-9-34-14-54-14-18 0-36 2-53 12-12 7-20 18-23 32-1 3-1 5 1 8l9-8c8-5 13-13 21-17 3-1 5-2 8 0zm178-80c-12 3-23 5-34 9-5 2-11 2-17 3l-8 2c17 15 38 23 55 37-5 2-7-2-11-2l17 11c-4 1-7 0-9-2-14-9-30-16-45-26-10-7-21-15-29-24-5-6-8-12-5-20v-10l3-18c1-3 2-5 6-3 3-8 4-16 8-24-2-1-4 2-6 0 2-4 5-6 8-9l15-11c11-6 24-6 36-6 8 1 16 1 24 5 11 5 21 11 30 19 6 6 8 15 11 23l5 13c1 4 1 6-3 7l-6 3c-4-4-6-8-8-13-3-9-8-18-15-24-11-7-20-16-34-17-13-1-25 1-37 4-7 2-7 4-9 12l13-1c4 0 8 1 11 3 7 4 15 7 20 13 6 8 10 15 9 25v9c0 4 2 5 6 4 11-2 22-5 34-6 3-1 6 0 8 2-1 4-3 5-7 6l-36 6m-22-33c-2 5-7 7-11 8l3 12c1 4-2 8 0 12 6 0 12-2 17-3 2-1 3-3 3-5 0-8 1-16-5-23l-8-10c0 3 2 5 1 9m-35 2c4-2 8-2 12-2 2-11 2-11 8-15-8-5-14-4-25 3-8 5-5 15-6 23 3-4 6-7 11-9m19-3c3 4 6 3 10 1 3-2 2-5 1-7-2-3-5-4-8-2-4 1-4 4-3 8m-40-2-2 19c-1 4-2 7 1 10l6-36-5 7zM524 384c-8 5-9 5-16-1a221 221 0 0 0-102-43c-17-3-35-3-52 1-12 2-22 10-32 18-12 9-22 22-31 34-3 4-6 8-10 10-2 0-2-1-2-2 1-25 8-48 21-69 9-15 19-29 31-41 5-4 10-7 16-8 21-3 42-2 63 3l38 11c10 2 21 7 31 8 7 0 11 5 16 6l17 7c10 4 12 10 11 19l1 6 5-14 1-4 5 2 6 8c4 4 5 9 2 15l-12 25-7 9m-92-47c27 3 52 12 72 30 7-6 5-15 9-21 3 1 2 2 2 4l-4 13c-3 8-3 8 3 14 2 1 3 2 5 0 8-9 14-19 18-30 2-3 0-6-3-9-5 11-11 20-20 28v-9c3-10 2-20 1-29 0-2 0-3-2-4l-15-5c-1 5 0 10-2 16-2-4-2-7-2-10-1-7-1-7-4-8 0 6 1 13-1 19l-3-17c-1-5-3-6-6-7-18-7-35-11-53-16-19-5-39-4-58-3-3 0-7 0-10 2 8 6 16 12 21 20-6-2-11-6-15-11-9-8-17-11-24-6-10 7-19 13-25 23l-17 27c-5 8-6 18-8 27 10-11 22-21 35-30-2-1-4 1-6-2 9-2 19-4 27-10 0-1-2-2-1-3h7c-5-3-10-2-14-5l3-1c14 2 29 5 44 6l46 7zm-97 172-11-2-4-2c-1-5-4-5-7-6l-1-1c1-2 3-1 5-1l24 5c6 1 7 0 8-6 3-18 13-32 28-43 18-12 43-6 56 10 9 13 11 27 11 42l-1 10c-1 2 0 3 2 3 2 1 4 1 6 4-39-3-78-5-116-13m27-19-1 5c-1 10-1 10 8 12h2c8 2 9 1 10-7 1-10 7-18 17-21l8-2c0-5 2-10 7-14-9-4-18-5-26-2-14 4-20 15-25 29m64 23 2 1c6 2 6 1 7-5v-15c-1-6-1-13-7-19 0 7-4 11-10 12 5 7 5 14 4 21-1 4 0 5 4 5m-11-32c3 1 6 1 8-2s2-6 0-9c-2-2-5-2-7-2-5 2-6 7-1 13z"/><path d="M364 444c-16 7-26 18-33 33-3 4-4 10-10 13-5 2-8-2-12-4-3-3 0-5 1-7 4-10 9-19 15-28l5-7c14-9 28-18 45-21 17-2 34-3 50 2 15 4 27 13 37 26l-10-1c3 10 6 19 6 30-5-2-2-7-6-9-1 15 2 30 0 46-4-2-4-4-4-6 0-14-1-29-4-43-3-11-10-19-17-27-2-3-7-3-10-3-13-1-26-2-38 2l-15 4z"/><path d="M406 557c-13 4-26 8-40 9 5-6 11-9 18-11 25-7 48-17 72-28 6-3 9-10 14-15 7-7 5-16 6-25v-20c3 0 4 2 4 4 3 16 2 31-1 47-2 8-7 11-13 15-16 9-33 16-51 21l-9 3zm-170-1 5 9c-2-8-5-15-5-23 3-1 3 0 4 2l14 41v2c-5-1-5-3-10-16-2 4-3 3-5 1-11-8-18-20-20-34-2-11 0-22 3-33 0-2 0-3 2-3 2 1 2 3 2 5-1 13 3 27 5 40l5 9zm301 284c-3 0-6 1-8-2l-4-1c-3 0-5 0-7-2 1-2 4-2 5-2 22-3 44-4 66 1 2 1 4 1 5 3 0 3 4 1 6 5-22 2-42 0-63-2zM162 540c4 3 9 5 13 9-8 5-18 8-26 12 3-6 8-9 14-12l-13-4c-2 0-5-1-7-3-2-1-4-2-3-5 0-3 3-3 5-3l21-3 27-6 3 1c1 1-1 2-2 2-8 4-16 6-24 8-3 1-6 1-8 4zm424-20-1-6c0-4 0-4 5-5 1-2-1-4 2-6 4 4 3 10 4 15 2-3 3-3 4 0l3 10 2 24c-4-6-4-12-7-18 0 9 2 17 0 26-3-6-4-13-4-20-2 4-1 8-2 12h-2l-4-32zM228 669c-2-9-2-18 0-27 6 15 7 32 15 47l25 43c-19-17-35-37-40-63zm244-222c-1 3-3 3-5 1-3-4-3-8-5-12l-8-14c-3-5-7-8-13-9l-3-1c-1-1-4-2-3-5 1-2 3-2 5-2 11 1 19 6 25 15 6 8 10 16 7 27m-10-24 7 17c0-8-2-14-7-17zm88 93c2-7 6-3 10-3-2 17-6 33-12 48-2-5 1-9 1-15-3 6-5 12-9 17-2-2-1-4-1-6l11-41zm31 295c8-2 16 0 24-1-8 8-103 6-116-3a424 424 0 0 0 64 3l25 1h3zm62-252c-6-14-13-28-21-41 5-2 7-1 9 2l18 32 10 20c1 1 2 3 1 5-3-8-13-10-17-18zm-420 47c2 4 1 8 0 11l-5 23c-1 5 0 9 1 13 0 2 1 3-1 5-3-3-4-7-5-11l-1-4c-6-9-3-17 1-24 3-5 5-10 10-13zm271-52v-2c-2 1-3 3-5 2 1-5 4-8 7-12 5-5 10-11 13-17l2-3c1-2 2-3 4-3 2 1 2 3 2 5 1 5-1 9-5 13l-16 18-3 3c-2-2 0-3 1-4zm179 124c4-4 8-7 13-9 3-1 5-1 7 1l9 11c2 3 2 6-2 8l-11 7h-8c-5-3-9-8-12-12s2-4 4-6m21 3-4-3c-4-3-13 0-15 4v4c4 7 8 8 16 4l4-2c3-2 4-4-1-7zM481 393c0-6-3-11-3-17h1c13 15 13 24 13 42 1 2 2 5 0 8-3-4-2-8-4-12-1 6 2 12 0 18l-7-39zM315 522c1-1 3-3 5-3 1 3 4 3 7 3 1 3-1 5-1 8 3 0 4-3 7-3 2 2 0 5 0 7 2 0 3-2 6-1 1 2 0 5-1 7l-2 2c-4-3-10 0-13-5l-8-4c-7-4-7-6 0-11zm164 138 4 8c3 6 2 9-5 10-5 1-11 4-17-1-4-3-7-11-5-16l2-3c5-3 16-2 21 2m-2 7c-3-6-8-3-12-3s-5 3-5 6 2 5 5 5h10c3-2 5-4 2-8zm35-110-13 19c-1-5 1-7 3-10 7-17 17-31 26-46 1-2 2-4 4-3 2 2 1 3 0 5-5 12-12 24-20 35zm139 154c-9 8-16 8-23 0-4-4-4-7 0-11l5-4c7-6 13-5 19 4 3 4 4 8-1 11m-2-6c-1-3-2-7-7-7-4 0-7 3-10 6-1 2 0 3 1 4 3 3 9 4 13 3 2-2 5-2 3-6zM328 436l-5 2c0-11 9-18 22-18-1-3-4-3-4-6 6 0 10-4 15-4 3-1 4 1 5 4 1 2-2 2-3 3l-11 7-2 1c-7 2-12 6-17 11zm114 252c-2 5-11 7-15 3-5-6-7-13-6-20 1-4 4-6 8-5 8 2 13 7 16 15 0 3 0 5-3 6-2-6-9-12-15-13-2 11 5 18 15 14zm250 47-13 3c-6 0-10-3-12-9-1-5 2-8 6-10l11-5c2-1 3 0 5 1 5 3 8 11 6 17l-3 3m-21-8 1 1c4 9 13 10 20 2v-4c-2-3-4-6-9-6s-9 2-12 7zm-223 36c-7-6-12-12-13-21 3 0 3 2 4 4 1 5 5 9 10 13 3 2 6 1 10 0 6-3 13-5 17-11 1-1 2-2 3-1 2 2 0 3-1 4l-15 15c-5 4-8 4-13-1l-2-2zm61-66c-7-5-7-16 0-21h5l11 10c3 2 3 5 2 8-2 4-3 7-8 6-3 0-7 0-10-3m13-10-6-4c-2-1-4-1-6 1-1 2-4 3-2 6s10 6 12 4c2-1 5-3 2-7zm247-255c-3-2-8-2-7-5 1-5 5-2 8-1 5 2 10 3 11 10 0 3 2 5 3 7 3-2 6-1 7 3 0 3 4 3 6 5s2 4 0 7c-1 2-3 3-4-1-1-2-6-2-4-6-4 1-6-2-7-4l-7-11c-1-2-3-4-6-4zM461 717c-3-5-3-14 0-18l4-2c3 0 12 7 12 9 0 4 3 8-1 11-4 4-11 4-15 0m7-3c3-1 6-2 6-6l-2-2c-4-2-10 1-11 5 0 2 0 3 2 3h5zm261-9-3 4c-5 7-8 8-15 2-5-4-4-13 3-15 4-2 8-2 11-1 5 1 6 4 4 10m-15 4c2 2 5 4 7 1 2-2 5-5 3-8-2-2-6-1-9 1h-1c-3 2-3 4 0 6zm113-52c-1-1-2-2-1-5 8 8 12 18 16 26-1 3-2 2-3 2-2 1 1 3-1 4-2 0-10-14-10-19 1-1 2 2 3 1l-4-9zm-72-108-2 1c-2 3-5 4-7 2-3-1-4-4-4-6 0-3 0-6 4-5v-4h1c4 1 7 3 9 6 2 2 3 5-1 6zm57 85c-3 1-4 4-8 4 6-10 11-20 18-29 2 6-1 14-10 25zm-138-64c-9-11-18-21-24-33 11 10 21 22 30 35-3 1-4-1-6-2zM524 384l7-9c4-2 5-7 7-10l5-4c0 7-15 28-23 32 0-4 3-5 4-9zM208 622c-2 1-3 0-2-2 2-5 5-11 10-15-1 6-4 11-8 17zm556-81c-1 4-4 4-6 2s-4-5-4-9c5 1 8 3 10 7z"/><path d="m221 640 2 1c0 7 2 14 1 21l-1 2c-3-8-3-16-2-24zm125-95c-3 0-6 0-5-3 1-4 4-5 8-6 1 4 0 7-3 9zm420-9c-2-3-2-3-2-7 3 1 5 4 7 6v3c-2 1-4 0-5-2zM635 763c4 0 7-2 10 0-3 4-8 4-14 1 1-2 3-1 4-1zm83-10c2-5 7-7 11-11-1 6-6 9-11 11zM256 584c-1-1-2-3 0-4 3 2 4 5 4 8-3 0-3-2-4-4zm90-404-18-21c1-3 3-3 5-3 18 2 36 6 52 15 13 7 25 17 34 29l1 1c-2 2-4 0-5-1l-23-19c-16-9-32-16-49-19l-4-1h-3c5 4 9 9 15 12 13 8 21 20 29 33 3 4 1 6-4 6l-22 1c-3 0-6 1-8-2h-3c-7 1-13 4-19 7-7 5-13 9-20 12 16-1 32 3 47 9l7 4c2 2 5 4 3 7-1 2-4 3-7 3l-7-1c-15-6-30-10-46-12l-3-1c2-3 5-2 7-2h8c-7-2-13 0-19-1 7-12 19-17 30-23 11-7 25-7 38-8-4-10-11-16-16-25zM508 17c-3 0-4-2-3-5 0-1 2-2 4 0 2 1 2 3-1 5zm10-1c-3 2-5 1-5-2 0-2 1-3 3-3 2 1 3 2 2 5zM383 308c2 2 4 3 4 6-5-4-9-7-13-13 5 1 7 4 9 7z"/></svg>
